Coordinates
version=1
nRows=12
nColumns=24
inDegrees=yes

Units are S.I. units (second, meters, Newtons, ...)
Angles are in degrees.

endheader
time	pelvis_tilt	pelvis_list	pelvis_rotation	pelvis_tx	pelvis_ty	pelvis_tz	hip_flexion_r	hip_adduction_r	hip_rotation_r	knee_angle_r	ankle_angle_r	subtalar_angle_r	mtp_angle_r	hip_flexion_l	hip_adduction_l	hip_rotation_l	knee_angle_l	ankle_angle_l	subtalar_angle_l	mtp_angle_l	lumbar_extension	lumbar_bending	lumbar_rotation
      3.51500000	     -5.82010501	      6.79510082	    360.07011150	     -0.25737102	      1.38206321	     -1.00071132	      2.30000000	    -10.86000000	      9.81000000	     -4.39000000	      0.00000000	      0.00000000	      0.00000000	      0.71000000	      5.21000000	     -0.08000000	     -1.04000000	      0.00000000	      0.00000000	      0.00000000	     -9.08033628	     -0.02297443	     -2.74998145
      3.52000000	     -5.85010149	      6.79462550	    360.17452609	     -0.25258055	      1.38158658	     -1.00075276	      2.30000000	    -10.86000000	      9.81000000	     -4.39000000	      0.00000000	      0.00000000	      0.00000000	      0.71000000	      5.21000000	     -0.08000000	     -1.04000000	      0.00000000	      0.00000000	      0.00000000	     -9.07455495	     -0.05653194	     -2.71178129
      3.52500000	     -5.89954699	      6.80375732	    360.28643348	     -0.24778338	      1.38107105	     -1.00078036	      2.30000000	    -10.86000000	      9.81000000	     -4.39000000	      0.00000000	      0.00000000	      0.00000000	      0.71000000	      5.21000000	     -0.08000000	     -1.04000000	      0.00000000	      0.00000000	      0.00000000	     -9.05533245	     -0.10530597	     -2.66895670
      3.53000000	     -5.94714946	      6.80323313	    360.40558502	     -0.24293991	      1.38047721	     -1.00079922	      2.30000000	    -10.86000000	      9.81000000	     -4.39000000	      0.00000000	      0.00000000	      0.00000000	      0.71000000	      5.21000000	     -0.08000000	     -1.04000000	      0.00000000	      0.00000000	      0.00000000	     -9.03093572	     -0.14478928	     -2.62431217
      3.53500000	     -6.00524980	      6.81235779	    360.53598617	     -0.23806803	      1.37987286	     -1.00081340	      2.30000000	    -10.86000000	      9.81000000	     -4.39000000	      0.00000000	      0.00000000	      0.00000000	      0.71000000	      5.21000000	     -0.08000000	     -1.04000000	      0.00000000	      0.00000000	      0.00000000	     -8.99405098	     -0.19774903	     -2.58162823
      3.54000000	     -6.04389923	      6.83056557	    360.67296975	     -0.23314677	      1.37921652	     -1.00081865	      2.30000000	    -10.86000000	      9.81000000	     -4.39000000	      0.00000000	      0.00000000	      0.00000000	      0.71000000	      5.21000000	     -0.08000000	     -1.04000000	      0.00000000	      0.00000000	      0.00000000	     -8.97145618	     -0.26149188	     -2.54020436
      3.54500000	     -6.08806708	      6.85574066	    360.81540307	     -0.22820470	      1.37854926	     -1.00081175	      2.30000000	    -10.86000000	      9.81000000	     -4.39000000	      0.00000000	      0.00000000	      0.00000000	      0.71000000	      5.21000000	     -0.08000000	     -1.04000000	      0.00000000	      0.00000000	      0.00000000	     -8.94918584	     -0.33315848	     -2.49675478
      3.55000000	     -6.14030195	      6.88970457	    360.96806050	     -0.22321134	      1.37785787	     -1.00080341	      2.30000000	    -10.86000000	      9.81000000	     -4.39000000	      0.00000000	      0.00000000	      0.00000000	      0.71000000	      5.21000000	     -0.08000000	     -1.04000000	      0.00000000	      0.00000000	      0.00000000	     -8.90959502	     -0.41500399	     -2.45358143
      3.55500000	     -6.17141136	      6.92729901	    361.12494279	     -0.21818185	      1.37715591	     -1.00078698	      2.30000000	    -10.86000000	      9.81000000	     -4.39000000	      0.00000000	      0.00000000	      0.00000000	      0.71000000	      5.21000000	     -0.08000000	     -1.04000000	      0.00000000	      0.00000000	      0.00000000	     -8.89514091	     -0.49848975	     -2.41325976
      3.56000000	     -6.19383746	      6.96691711	    361.28671768	     -0.21310138	      1.37642027	     -1.00076295	      2.30000000	    -10.86000000	      9.81000000	     -4.39000000	      0.00000000	      0.00000000	      0.00000000	      0.71000000	      5.21000000	     -0.08000000	     -1.04000000	      0.00000000	      0.00000000	      0.00000000	     -8.88587786	     -0.58254469	     -2.37059872
      3.56500000	     -6.21956499	      7.01690190	    361.45649267	     -0.20798205	      1.37567542	     -1.00073864	      2.30000000	    -10.86000000	      9.81000000	     -4.39000000	      0.00000000	      0.00000000	      0.00000000	      0.71000000	      5.21000000	     -0.08000000	     -1.04000000	      0.00000000	      0.00000000	      0.00000000	     -8.87089512	     -0.67697168	     -2.33016717
      3.57000000	     -6.21515635	      7.07862417	    361.62920703	     -0.20279673	      1.37497307	     -1.00071050	      2.30000000	    -10.86000000	      9.81000000	     -4.39000000	      0.00000000	      0.00000000	      0.00000000	      0.71000000	      5.21000000	     -0.08000000	     -1.04000000	      0.00000000	      0.00000000	      0.00000000	     -8.87771649	     -0.78000476	     -2.29078863
